<?xml version="1.0" encoding="UTF-8" standalone="no"?>
<svg
   version="1.1"
   width="512.53442"
   height="367.16495"
   id="svg1"
   sodipodi:docname="gimp.svg"
   inkscape:version="1.3.2 (091e20e, 2023-11-25, custom)"
   xmlns:inkscape="http://www.inkscape.org/namespaces/inkscape"
   xmlns:sodipodi="http://sodipodi.sourceforge.net/DTD/sodipodi-0.dtd"
   xmlns="http://www.w3.org/2000/svg"
   xmlns:svg="http://www.w3.org/2000/svg">
  <defs
     id="defs1" />
  <sodipodi:namedview
     id="namedview1"
     pagecolor="#ffffff"
     bordercolor="#999999"
     borderopacity="1"
     inkscape:showpageshadow="2"
     inkscape:pageopacity="0"
     inkscape:pagecheckerboard="0"
     inkscape:deskcolor="#d1d1d1"
     inkscape:zoom="0.66153154"
     inkscape:cx="268.31676"
     inkscape:cy="319.71265"
     inkscape:window-width="1366"
     inkscape:window-height="705"
     inkscape:window-x="-8"
     inkscape:window-y="-8"
     inkscape:window-maximized="1"
     inkscape:current-layer="svg1" />
  <path
     d="M 458.34578,286.76019 400.85817,251.18087 C 428.64211,204.8923 443.63478,130.93774 430.79772,14.420938 429.5468,-2.7599249 412.89601,-5.6904669 408.17479,12.433938 388.0974,72.67725 321.3561,95.05595 270.94856,103.36747 251.54134,92.79073 230.42326,95.25021 211.15758,107.75497 163.93033,104.27078 128.61882,77.15078 107.02273,24.916497 l -2.36164,101.567853 c -4.833583,9.5076 -6.612445,18.57398 -5.596057,27.23656 -22.241317,-23.26604 -53.145214,-36.23148 -79.403541,-18.47061 -52.422295,43.27754 13.411531,139.89664 71.339698,128.68716 83.68488,58.57129 191.62859,84.99198 270.7477,30.83521 l 76.97947,29.88684 c 13.26375,22.00403 15.63231,11.58478 73.80608,41.84692 -13.63492,-46.28299 -18.55664,-83.01605 -54.18866,-79.74624 z M 28.722298,184.35442 c -11.146307,-7.71081 -11.146307,-27.09159 0,-34.80238 11.146309,-7.7108 25.154507,1.97998 25.154507,17.40157 0,15.42082 -14.008198,25.1116 -25.154507,17.40081 z M 219.49478,111.21139 c 33.57012,-19.35379 75.76049,4.96957 75.76049,43.67647 0,38.70756 -42.19037,63.03093 -75.76049,43.67714 -33.57081,-19.35379 -33.57081,-68.00051 0,-87.35361 z m -91.1611,74.79892 c -27.69999,-16.01671 -27.69999,-56.27628 0,-72.29297 24.40038,-14.10878 54.3205,-0.17067 61.10292,25.2447 -2.83827,8.08329 -3.70273,18.22362 -1.62414,26.30413 -8.88877,22.53964 -36.54229,34.0065 -59.47878,20.74414 z m 201.40416,72.35168 5.1077,3.08969 c -40.39783,22.50596 -102.76563,15.60633 -178.48279,-6.44207 67.95559,9.21414 135.51391,10.4284 193.87424,-32.37827 l 9.23156,14.14227 c -18.88974,1.83796 -26.67721,12.71723 -29.73071,21.58838 z m -85.35637,-72.83163 c -17.37486,-10.0168 -17.37486,-35.19478 0,-45.21158 17.37486,-10.0168 39.21135,2.57217 39.21135,22.60579 0,20.03361 -21.83649,32.6226 -39.21135,22.60579 z m -61.98292,-28.82352 c 0,-17.06517 -18.60094,-27.78882 -33.40134,-19.25622 -14.80039,8.53257 -14.80039,29.97987 1e-5,38.51246 14.80039,8.53258 33.40133,-2.19105 33.40133,-19.25624 z"
     id="path1" />
</svg>
