<?xml version="1.0" ?><!DOCTYPE svg  PUBLIC '-//W3C//DTD SVG 1.1//EN'  'http://www.w3.org/Graphics/SVG/1.1/DTD/svg11.dtd'><svg aria-labelledby="simpleicons-viber-icon" enable-background="new 0 0 24 24" height="3.33333in" role="img" style="shape-rendering:geometricPrecision; text-rendering:geometricPrecision; image-rendering:optimizeQuality; fill-rule:evenodd; clip-rule:evenodd" version="1.1" viewBox="0 0 3333 3333" width="3.33333in" xml:space="preserve" xmlns="http://www.w3.org/2000/svg" xmlns:xlink="http://www.w3.org/1999/xlink"><defs><style type="text/css">
   <![CDATA[
    .fil0 {fill:black}
    .fil1 {fill:white}
   ]]>
  </style></defs><g id="Layer_x0020_1"><circle class="fil0" cx="1667" cy="1667" r="1667"/><g id="_823617168"><path class="fil1" d="M2285 989c-42,-38 -211,-161 -588,-163 0,0 -444,-26 -660,172 -121,121 -163,297 -168,516 -4,218 -10,628 385,739l1 0 -1 169c0,0 -2,69 43,83 55,17 87,-35 139,-91 29,-31 68,-77 98,-111 270,22 478,-29 501,-37 55,-18 363,-57 414,-467 51,-422 -25,-690 -164,-810l0 0 0 0zm46 780c-44,342 -294,364 -339,378 -20,7 -203,52 -433,37 0,0 -171,206 -224,260 -8,8 -19,12 -25,10 -10,-2 -12,-13 -12,-28l2 -281c-2,0 0,0 0,0 -335,-94 -315,-442 -311,-625 3,-182 38,-332 140,-433 183,-166 561,-141 561,-141 319,1 471,97 507,130 117,100 177,341 133,693l1 0zm-963 -595c17,0 32,8 44,22 0,0 41,49 58,73 17,22 39,58 50,78 20,36 7,72 -12,88l-40 31c-20,16 -17,46 -17,46 0,0 59,221 278,277 0,0 29,3 45,-17l32 -40c15,-20 52,-33 87,-13 20,11 56,33 79,50 23,17 72,58 72,58 23,19 29,48 13,77l0 2c-16,28 -38,54 -66,80l0 0c-22,19 -44,29 -66,31 -2,0 -6,1 -10,0 -9,0 -19,-2 -28,-4l0 -1c-34,-10 -90,-34 -182,-85 -60,-34 -111,-68 -154,-103 -22,-17 -45,-37 -68,-61l-6 -2 -2 -2 -2 -2c-23,-23 -43,-46 -61,-68 -34,-43 -67,-93 -101,-154 -51,-93 -76,-148 -85,-182l-1 0c-3,-9 -5,-19 -4,-28 -1,-5 0,-8 0,-10 2,-21 13,-43 32,-66l0 0c25,-28 52,-50 80,-66 12,-6 24,-9 34,-9l1 0 0 0zm287 -47l8 0 6 0 1 0 6 0 36 0 10 1 5 0 10 1 2 0 8 1 1 0 5 1c3,0 5,1 7,1l7 0 5 2 4 2 4 1 3 1 3 0 3 1 2 0 5 1 3 1 4 1 4 1 2 1c2,0 4,1 6,1l3 1 4 1 8 4 4 2 10 4 3 1 3 1 6 3 5 1 2 1 5 3 2 1 4 2 3 1 4 2 4 2 3 2 2 1 4 2 3 2 6 3 3 2 5 3 1 1 3 2 7 5 3 2 3 2 2 1 3 2 5 6 5 3 3 2 1 1 2 1 5 4 3 3 3 2 3 3 3 2 2 1 8 8 5 4 9 10 2 2c1,1 3,3 4,5l2 2 12 14 3 4c1,1 1,2 2,2l7 10 3 3 6 8 5 9 4 6 4 7 3 7 1 2 2 4 5 11 6 10 2 5c4,10 7,19 11,30 5,13 10,28 13,44 3,11 5,22 7,34l2 19 3 21c2,8 3,18 3,26 1,8 1,17 1,25l0 18c0,1 -1,2 -1,3 -2,2 -3,3 -5,5 -1,1 -3,4 -5,4 -2,1 -4,1 -7,1l-3 0c-2,0 -4,-1 -6,-2 -2,-1 -4,-2 -5,-5 -1,-2 -3,-4 -5,-6 -1,-2 -2,-4 -2,-6l0 -25c-1,-15 -2,-30 -4,-45 -1,-11 -3,-20 -4,-30 0,-5 -1,-10 -2,-14l-2 -11 -3 -10 -1 -6 -3 -11c-2,-8 -5,-16 -8,-25 -3,-6 -5,-11 -8,-17l-2 -5 -9 -19 -3 -3c-4,-10 -9,-19 -15,-28l-3 -5 -15 0 -4 -6c-4,-6 -8,-12 -13,-17l-8 -10 -2 -1 -3 -4 -2 -4 -5 -5 -2 -2 -4 -4 -4 -3 -5 -6 -3 -2 -3 -3 -1 -2c-2,-1 -4,-3 -6,-4l-5 -4 -2 -1 -4 -3 -6 -5 -3 -2 -2 -1 -4 -4c0,-1 -1,-1 -2,-1l-2 -2 -1 -1 0 -1 -2 -1 -5 -3 -3 -2 -5 -3 -4 -3 -2 -1 -3 -1 -6 0 -1 -1 -5 -3 0 -1 -3 -1 -3 -1 -1 0 -3 -1 -1 -2 -4 -1 0 0 -2 -1 -4 -3 -2 -1 -7 -2 -5 -2 -9 -1 -3 -2c-1,-1 -3,-1 -4,-1l-2 -1c-2,-1 -3,-1 -5,-2l-2 -1 -2 0 -4 -2 -2 -1 -4 -1 -6 0c-1,0 -1,-1 -2,-1l-6 0 -4 -1 -1 0 -3 -1 -3 0c-1,-1 -3,-1 -5,-1l0 -1 -4 -1c-3,-1 -4,-1 -6,-1l-4 -2 -3 -1 -3 -1 -4 -1 -5 0 -12 -1 -7 0 -8 -1 -5 0 -5 -1 -2 0 -4 -1 -20 0 0 -1 -5 0c-2,0 -4,-1 -6,-2 -2,-1 -4,-2 -6,-4l-2 -4c-2,-2 -2,-4 -3,-6 -1,-2 -1,-4 -1,-6 0,-2 0,-4 1,-7 1,-2 2,-4 4,-5 1,-2 3,-3 6,-4 2,-1 4,-2 6,-2l4 0 1 5zm39 110l3 0 4 1c0,0 1,0 2,0 2,0 3,0 5,0l4 1 2 1 3 1 4 1 3 1 2 0 3 1 5 1 4 1 2 1 5 0 8 2 3 1 3 1 4 2c0,0 1,0 1,1l3 1 3 1 3 1c1,0 2,1 3,1 1,0 1,1 2,1l5 2 2 0 6 2 3 2 4 2 7 3 4 2 3 2c3,1 6,3 9,4l3 2 4 2 3 2c3,2 6,3 9,5l2 1 3 3 1 1 5 3 3 2 5 3 2 1 2 1 3 2 4 3c1,1 2,1 3,2 0,1 1,1 1,2l3 3 2 2 2 2 3 3 2 2 2 1 6 6 1 2c0,1 1,2 2,2l1 1 3 3 2 3 2 2 4 4 3 3 6 9 1 2 4 5 2 2 1 2 1 2 1 3c1,1 1,2 2,4l3 5 1 1 2 4 2 3c1,2 1,3 2,4l2 3 2 4 2 4 2 3c1,4 3,6 4,9 0,1 1,2 1,3l3 8 4 14c0,1 1,3 1,4l4 10 3 12 3 17c1,5 1,10 2,15 1,8 2,17 2,25l1 15 0 12c0,1 0,2 -1,3l-3 3c-2,1 -3,3 -5,4 -2,1 -5,2 -7,3 -2,1 -5,1 -7,1 -2,0 -4,-1 -6,-2 -1,0 -2,-1 -3,-2 -3,-1 -5,-2 -6,-4 -2,-2 -3,-4 -3,-7l-1 -3 0 -22c0,-9 -1,-18 -2,-27 -1,-9 -3,-20 -5,-29 -2,-6 -3,-13 -6,-18l-2 -7 -2 -5 -1 -2 -3 -9 -3 -6 -5 -10 -5 -9 0 -1 -2 -3 -2 -3 -4 -5 -3 -5 -6 -8c-3,-4 -6,-8 -10,-12 -1,-1 -2,-2 -2,-4l-2 -2 -1 -1 -2 -1 -2 -2 0 -10 -9 -8 -5 -4 0 -1 -2 -3 -3 -2 -1 -1c0,-1 -1,-1 -2,-1l-3 -1 -1 -1 -4 -3 -1 -1 -2 -1c0,-1 -1,-1 -2,-1l-4 -4 -1 -1 -4 -2 -1 -1 -3 -2 -2 -1 -2 -2 -2 -2 -2 0c-2,-2 -4,-3 -7,-4l-3 -3 -2 -1 -1 -1 -3 -2 -3 -1 -5 -2 -3 -1 -1 -1 -4 -1 0 -1 -6 -2 -4 -2 -3 -1 -4 0c-2,-1 -3,-1 -5,-2l-3 0 -3 -1 -3 0 -4 -1 -2 -1 -4 0 -4 -2 -2 -1 -12 0 -5 -1 -24 0 -3 -1c-3,-1 -5,-2 -7,-4 -1,-2 -3,-4 -4,-6 -1,-2 -2,-5 -2,-7l0 -6c0,-3 1,-5 2,-7 1,-1 1,-2 2,-3 1,-3 3,-5 5,-6 1,-1 2,-1 3,-2 3,-1 5,-1 7,-1l4 0 -1 4 0 0zm32 114c1,0 2,0 3,0 1,0 2,0 3,1l4 0c7,1 15,2 22,3l7 2 2 0 8 2 4 2 4 1c3,1 6,3 9,4l1 1 4 2 7 4 2 1c1,1 2,1 3,2 1,1 3,2 4,3 5,2 8,5 11,7l7 6 6 7 5 5 2 2 2 2 3 4 6 10 6 9 4 9 3 7c3,7 4,14 6,21 2,7 3,14 5,20l1 11 1 9 0 4c0,3 -1,6 -2,8 -1,2 -4,5 -6,6 -2,2 -4,3 -7,4 -2,1 -4,1 -6,1 -2,0 -5,0 -7,-1l-7 -3c-2,-2 -4,-3 -6,-6 -1,-2 -2,-5 -3,-8l0 -11 -2 -8 -1 -8 -1 -7 -1 -5c0,-1 -1,-3 -1,-4 -2,-8 -6,-17 -10,-25l-5 -4 -3 -4 -3 -4 -1 -2 -5 -4 -5 -4 -4 -3c-1,-1 -2,-1 -4,-2l-6 -5 -5 -2 -2 -1 -1 0 -5 -2 -6 -2 -7 -1 -5 0 -3 -1 -3 -1 -3 0 -4 -1 -18 0 -1 -5 -3 0c-2,0 -3,-1 -5,-2 -3,-2 -5,-3 -7,-6 -1,-2 -2,-4 -3,-6 0,-2 -1,-4 -1,-6 0,-3 0,-6 2,-8 1,-3 2,-5 4,-7l4 -3c2,-2 4,-3 6,-3l5 -5 2 0z"/></g></g></svg>