<?xml version="1.0" ?><svg viewBox="0 0 88 88" xmlns="http://www.w3.org/2000/svg"><title/><g data-name="Paint Roller" id="Paint_Roller"><rect height="22" rx="1" ry="1" width="62" x="7" y="1"/><path d="M1,7V17a1.0029,1.0029,0,0,0,1,1H5V6H2A1.0029,1.0029,0,0,0,1,7Z"/><path d="M75,17V7a1.0029,1.0029,0,0,0-1-1H71V18h3A1.0029,1.0029,0,0,0,75,17Z"/><circle cx="38" cy="76" r="3"/><path d="M45.3755,47.7949A3.0082,3.0082,0,0,0,42.3828,45H33.6172a3.0082,3.0082,0,0,0-2.9927,2.7949L28.62,76.9531a9.4025,9.4025,0,1,0,18.7608,0ZM38,81a5,5,0,1,1,5-5A5.0059,5.0059,0,0,1,38,81Z"/><path d="M82,11H77v2h5a3.0088,3.0088,0,0,1,3,3V28a3.0088,3.0088,0,0,1-3,3H42a5.0018,5.0018,0,0,0-5,5v7h2V36a3.0088,3.0088,0,0,1,3-3H82a5.0018,5.0018,0,0,0,5-5V16A5.0018,5.0018,0,0,0,82,11Z"/></g></svg>