<?xml version="1.0" encoding="UTF-8" standalone="no"?>
<svg
   role="img"
   focusable="false"
   aria-hidden="true"
   viewBox="0 0 12.000947 12.000808"
   version="1.1"
   id="svg1"
   sodipodi:docname="портрет.svg"
   width="12.000946"
   height="12.000809"
   inkscape:version="1.3.2 (091e20e, 2023-11-25, custom)"
   xmlns:inkscape="http://www.inkscape.org/namespaces/inkscape"
   xmlns:sodipodi="http://sodipodi.sourceforge.net/DTD/sodipodi-0.dtd"
   xmlns="http://www.w3.org/2000/svg"
   xmlns:svg="http://www.w3.org/2000/svg">
  <defs
     id="defs1" />
  <sodipodi:namedview
     id="namedview1"
     pagecolor="#ffffff"
     bordercolor="#999999"
     borderopacity="1"
     inkscape:showpageshadow="2"
     inkscape:pageopacity="0"
     inkscape:pagecheckerboard="0"
     inkscape:deskcolor="#d1d1d1"
     inkscape:zoom="128"
     inkscape:cx="11.589844"
     inkscape:cy="1.3085937"
     inkscape:window-width="1366"
     inkscape:window-height="705"
     inkscape:window-x="-8"
     inkscape:window-y="-8"
     inkscape:window-maximized="1"
     inkscape:current-layer="svg1">
    <inkscape:page
       x="0"
       y="0"
       width="12.000947"
       height="12.000808"
       id="page1"
       margin="0 0 0 0.96450937"
       bleed="0" />
  </sodipodi:namedview>
  <path
     d="m 9.0357992,10.295685 c 0.150116,0 0.271801,-0.1217 0.271801,-0.2718 V 9.1683244 c 0,-0.46963 -0.14434,-0.93235 -0.4075381,-1.32094 -0.2954881,-0.43627 -0.7087475,-0.65511 -1.1563488,-0.89511 -0.2882446,-0.15456 -0.5562401,-0.3798 -0.6858754,-0.67366 0.8287474,-0.39428 1.4016761,-1.23926 1.4016761,-2.21811 -1.36e-5,-1.35593 -1.0992163,-2.45512 -2.4551348,-2.45512 -1.3559185,0 -2.4551212,1.09918 -2.4551212,2.45511 0,0.97885 0.5729151,1.82382 1.4016761,2.21811 -0.1296353,0.29386 -0.3976308,0.5191 -0.6858754,0.67366 -0.4476149,0.24 -0.8608743,0.45885 -1.1563488,0.89511 -0.2631982,0.38859 -0.4075379,0.85134 -0.4075379,1.32093 v 0.8555606 c 0,0.15011 0.1216851,0.2718 0.2718006,0.2718 h 3.0314066 3.03142 z m -1.3014902,1.70465 h 3.998269 c 0.150116,0 0.271801,-0.12167 0.271801,-0.2718 V 7.7302744 c 0,-0.15013 -0.121685,-0.2718 -0.271801,-0.2718 h -0.475651 c -0.150115,0 -0.271801,0.12167 -0.271801,0.2718 v 2.9790106 c 0,0.15013 -0.121685,0.2718 -0.2718,0.2718 H 7.734309 c -0.1501155,0 -0.2718007,0.12167 -0.2718007,0.2718 v 0.47565 c 0,0.15013 0.1216852,0.2718 0.2718007,0.2718 z m -7.45812907,0 H 4.2744358 c 0.1501155,0 0.2718007,-0.12167 0.2718007,-0.2718 v -0.47565 c 0,-0.15013 -0.1216852,-0.2718 -0.2718007,-0.2718 H 1.2954324 c -0.1501155,0 -0.2718007,-0.12167 -0.2718007,-0.2718 V 7.7302744 c 0,-0.15013 -0.12168507,-0.2718 -0.27180057,-0.2718 h -0.4756512 c -0.1501155,0 -0.2718007,0.12167 -0.2718007,0.2718 v 3.9982606 c 0,0.15013 0.1216852,0.2718 0.2718007,0.2718 z M 12.004379,2.6110344 v -0.49904 -1.83986005 c 0,-0.15011 -0.121685,-0.27179999986 -0.271801,-0.27179999986 H 10.38037 10.135749 7.7343226 c -0.1501155,0 -0.2718007,0.12168999986 -0.2718007,0.27179999986 v 0.47565 c 0,0.15012 0.1216852,0.27180005 0.2718007,0.27180005 h 2.4014264 0.244621 0.332956 c 0.150115,0 0.2718,0.12169 0.2718,0.2718 v 0.82061 0.49904 1.65938 c 0,0.15012 0.121686,0.2718 0.271801,0.2718 h 0.475651 c 0.150116,0 0.271801,-0.12168 0.271801,-0.2718 z M 0.27617993,3.3435014e-4 c -0.1501155,0 -0.2718007,0.12168999986 -0.2718007,0.27179999986 V 4.2703944 c 0,0.15011 0.1216852,0.2718 0.2718007,0.2718 h 0.4756512 c 0.1501155,0 0.27180057,-0.12169 0.27180057,-0.2718 v -2.97901 c 0,-0.15011 0.1216852,-0.2718 0.2718007,-0.2718 h 2.979017 c 0.1501155,0 0.2718007,-0.12168005 0.2718007,-0.27180005 v -0.47565 c 0,-0.15011 -0.1216852,-0.27179999986 -0.2718007,-0.27179999986 z"
     id="path1" />
</svg>
