<?xml version="1.0" encoding="UTF-8" standalone="no"?>
<svg
   enable-background="new 0 0 512 512"
   height="493.86026"
   id="Layer_1"
   version="1.1"
   viewBox="0 0 492.34864 493.86027"
   width="492.34863"
   xml:space="preserve"
   sodipodi:docname="почта.svg"
   inkscape:version="1.3.2 (091e20e, 2023-11-25, custom)"
   xmlns:inkscape="http://www.inkscape.org/namespaces/inkscape"
   xmlns:sodipodi="http://sodipodi.sourceforge.net/DTD/sodipodi-0.dtd"
   xmlns="http://www.w3.org/2000/svg"
   xmlns:svg="http://www.w3.org/2000/svg"><defs
     id="defs1" /><sodipodi:namedview
     id="namedview1"
     pagecolor="#ffffff"
     bordercolor="#999999"
     borderopacity="1"
     inkscape:showpageshadow="2"
     inkscape:pageopacity="0"
     inkscape:pagecheckerboard="0"
     inkscape:deskcolor="#d1d1d1"
     inkscape:zoom="0.66153154"
     inkscape:cx="369.59689"
     inkscape:cy="260.75854"
     inkscape:window-width="1366"
     inkscape:window-height="705"
     inkscape:window-x="-8"
     inkscape:window-y="-8"
     inkscape:window-maximized="1"
     inkscape:current-layer="Layer_1" /><g
     id="g1"
     transform="translate(-9.8256842,-9.0698623)"><circle
       cx="255.99899"
       cy="256"
       r="246.455"
       id="circle1" /></g><g
     id="Page-1"
     transform="translate(-9.8256842,-9.0698623)"><g
       id="Icons-Communication"
       transform="translate(0,-85)"><g
         id="gmail"
         transform="translate(0,85)"><path
           d="M 384,128 H 128 c -17.602,0 -32,14.406 -32,32 v 192 c 0,17.594 14.398,32 32,32 h 256 c 17.594,0 32,-14.406 32,-32 V 160 c 0,-17.594 -14.406,-32 -32,-32 z m 0,224 H 352 V 211.203 L 256,272 160,211.203 V 352 H 128 V 160 h 19.203 L 256,227.203 364.797,160 H 384 Z"
           fill="#ffffff"
           id="Shape" /></g></g></g></svg>
