<?xml version="1.0" encoding="UTF-8" standalone="no"?>
<svg
   enable-background="new 0 0 144.083 144"
   height="115.72485"
   id="Pinterest"
   version="1.1"
   viewBox="0 0 115.80785 115.72485"
   width="115.80784"
   xml:space="preserve"
   sodipodi:docname="пінтерест.svg"
   inkscape:version="1.3.2 (091e20e, 2023-11-25, custom)"
   xmlns:inkscape="http://www.inkscape.org/namespaces/inkscape"
   xmlns:sodipodi="http://sodipodi.sourceforge.net/DTD/sodipodi-0.dtd"
   xmlns="http://www.w3.org/2000/svg"
   xmlns:svg="http://www.w3.org/2000/svg"><defs
     id="defs1" /><sodipodi:namedview
     id="namedview1"
     pagecolor="#ffffff"
     bordercolor="#999999"
     borderopacity="1"
     inkscape:showpageshadow="2"
     inkscape:pageopacity="0"
     inkscape:pagecheckerboard="0"
     inkscape:deskcolor="#d1d1d1"
     inkscape:zoom="3.3244729"
     inkscape:cx="57.903917"
     inkscape:cy="57.903917"
     inkscape:window-width="1366"
     inkscape:window-height="705"
     inkscape:window-x="-8"
     inkscape:window-y="-8"
     inkscape:window-maximized="1"
     inkscape:current-layer="Pinterest" /><path
     d="m 57.90342,0.02842035 c -31.941,0 -57.83299965,25.89399965 -57.83299965,57.83399965 0,31.939 25.89299965,57.834 57.83299965,57.834 31.94,0 57.834,-25.895 57.834,-57.834 0,-31.94 -25.894,-57.83399965 -57.834,-57.83399965 z M 85.44842,51.20242 c -0.688,8.231 -6.709,17.835 -12.271,20.579 -5.564,2.744 -11.51,2.744 -14.939,1.067 0,0 -4.421,-2.668 -5.03,-3.431 -0.381,0.305 -1.601,7.851 -3.43,12.576 -1.829,4.725 -4.344,9.375 -7.927,11.509 -1.295,-4.268 -0.457,-14.786 2.058,-24.085 2.517,-9.298 3.507,-13.643 3.507,-13.643 0,0 -3.201,-6.098 -0.076,-12.804 3.125,-6.707 8.993,-5.183 10.137,-4.116 1.144,1.067 3.201,1.905 1.524,8.765 -1.677,6.86 -4.497,13.567 -2.134,17.226 1.447,2.058 9.146,3.734 13.489,-2.058 3.507,-5.869 4.88,-8.536 5.032,-17.759 0,0 0.164,-14.797 -13.035,-15.7 -11.127,-0.763 -16.266,3.991 -19.663,7.316 -3.582,3.506 -6.249,13.108 -2.896,18.444 1.677,2.362 1.753,3.734 1.524,5.106 -0.229,1.372 -1.296,3.43 -1.296,3.43 0,0 -9.45,-1.676 -9.907,-13.262 -0.458,-11.585 4.953,-18.216 9.755,-21.874 4.803,-3.658 13.135,-8.333 29.598,-5.284 10.873,2.949 17.732,12.298 15.98,27.998 z"
     id="path1" /></svg>
