<?xml version="1.0" encoding="UTF-8" standalone="no"?>
<svg
   version="1.1"
   id="mdi-math-compass"
   width="16.002626"
   height="19.993263"
   viewBox="0 0 16.002626 19.993263"
   sodipodi:docname="рисунок.svg"
   inkscape:version="1.3.2 (091e20e, 2023-11-25, custom)"
   xmlns:inkscape="http://www.inkscape.org/namespaces/inkscape"
   xmlns:sodipodi="http://sodipodi.sourceforge.net/DTD/sodipodi-0.dtd"
   xmlns="http://www.w3.org/2000/svg"
   xmlns:svg="http://www.w3.org/2000/svg">
  <defs
     id="defs1" />
  <sodipodi:namedview
     id="namedview1"
     pagecolor="#ffffff"
     bordercolor="#999999"
     borderopacity="1"
     inkscape:showpageshadow="2"
     inkscape:pageopacity="0"
     inkscape:pagecheckerboard="0"
     inkscape:deskcolor="#d1d1d1"
     inkscape:zoom="16"
     inkscape:cx="7.34375"
     inkscape:cy="8.34375"
     inkscape:window-width="1366"
     inkscape:window-height="705"
     inkscape:window-x="-8"
     inkscape:window-y="-8"
     inkscape:window-maximized="1"
     inkscape:current-layer="mdi-math-compass" />
  <path
     d="m 16,17.875825 v 2.12 l -1.8,-1.17 -4.79,-9.0000004 c 0.66,-0.21 1.26,-0.55 1.78,-1 L 16,17.875825 M 11,4.9958246 a 3,3 0 0 1 -3,3 c -0.15,0 -0.29,0 -0.44,0 L 1.8,18.825825 l -1.8,1.17 v -2.12 L 5.79,6.9958246 c -1.1,-1.23 -1,-3.13 0.24,-4.24 0.54,-0.48 1.24,-0.76 1.97,-0.76 v -1.99999997 a 1,1 0 0 1 1,1 V 2.1758246 c 1.2,0.42 2,1.55 2,2.82 m -2,0 a 1,1 0 0 0 -1,-1 1,1 0 0 0 -1,1 1,1 0 0 0 1,1 1,1 0 0 0 1,-1 z"
     id="path1" />
</svg>
