<?xml version="1.0" encoding="UTF-8" standalone="no"?>
<svg
   width="31.062346"
   height="31.032297"
   viewBox="0 0 31.062346 31.032298"
   version="1.1"
   id="svg1"
   sodipodi:docname="телеграм.svg"
   inkscape:version="1.3.2 (091e20e, 2023-11-25, custom)"
   xmlns:inkscape="http://www.inkscape.org/namespaces/inkscape"
   xmlns:sodipodi="http://sodipodi.sourceforge.net/DTD/sodipodi-0.dtd"
   xmlns="http://www.w3.org/2000/svg"
   xmlns:svg="http://www.w3.org/2000/svg">
  <defs
     id="defs1" />
  <sodipodi:namedview
     id="namedview1"
     pagecolor="#ffffff"
     bordercolor="#999999"
     borderopacity="1"
     inkscape:showpageshadow="2"
     inkscape:pageopacity="0"
     inkscape:pagecheckerboard="0"
     inkscape:deskcolor="#d1d1d1"
     inkscape:zoom="5.2922523"
     inkscape:cx="13.132405"
     inkscape:cy="-10.675984"
     inkscape:window-width="1366"
     inkscape:window-height="705"
     inkscape:window-x="-8"
     inkscape:window-y="-8"
     inkscape:window-maximized="1"
     inkscape:current-layer="svg1" />
  <path
     d="m 15.577225,0.0046872 c -8.563001,0 -15.50000093,6.938 -15.50000093,15.4999998 0,8.562 6.93799993,15.5 15.50000093,15.5 8.563,0 15.5,-6.938 15.5,-15.5 0,-8.5619998 -6.938,-15.4999998 -15.5,-15.4999998 z m 7.613,10.6189998 -2.544,11.988 c -0.188,0.85 -0.694,1.056 -1.4,0.656 l -3.875,-2.856 -1.869,1.8 c -0.206,0.206 -0.381,0.381 -0.781,0.381 l 0.275,-3.944 7.181,-6.488 c 0.313,-0.275 -0.069,-0.431 -0.482,-0.156 l -8.875,5.587 -3.825001,-1.194 c -0.831,-0.262 -0.85,-0.831 0.175,-1.231 L 22.114225,9.4036872 c 0.694,-0.25 1.3,0.169 1.075,1.2189998 z"
     id="path1" />
</svg>
