<?xml version="1.0" encoding="UTF-8" standalone="no"?>
<svg
   enable-background="new 0 0 144.083 144"
   height="116.32645"
   id="Facebook"
   version="1.1"
   viewBox="0 0 117.01104 116.32644"
   width="117.01103"
   xml:space="preserve"
   sodipodi:docname="фейсбук.svg"
   inkscape:version="1.3.2 (091e20e, 2023-11-25, custom)"
   xmlns:inkscape="http://www.inkscape.org/namespaces/inkscape"
   xmlns:sodipodi="http://sodipodi.sourceforge.net/DTD/sodipodi-0.dtd"
   xmlns="http://www.w3.org/2000/svg"
   xmlns:svg="http://www.w3.org/2000/svg"><defs
     id="defs1" /><sodipodi:namedview
     id="namedview1"
     pagecolor="#ffffff"
     bordercolor="#999999"
     borderopacity="1"
     inkscape:showpageshadow="2"
     inkscape:pageopacity="0"
     inkscape:pagecheckerboard="0"
     inkscape:deskcolor="#d1d1d1"
     inkscape:zoom="3.3244729"
     inkscape:cx="58.204716"
     inkscape:cy="58.204716"
     inkscape:window-width="1366"
     inkscape:window-height="705"
     inkscape:window-x="-8"
     inkscape:window-y="-8"
     inkscape:window-maximized="1"
     inkscape:current-layer="Facebook"><inkscape:page
       x="0"
       y="0"
       width="117.01104"
       height="116.32644"
       id="page1"
       margin="14.14 13.540001 14.14 12.930001"
       bleed="0" /></sodipodi:namedview><path
     d="m 58.204219,0.32821945 c -31.94,0 -57.83300028,25.89399955 -57.83300028,57.83399955 0,31.939 25.89300028,57.836001 57.83300028,57.836001 31.94,0 57.835001,-25.896001 57.835001,-57.836001 -0.001,-31.94 -25.895001,-57.83399955 -57.835001,-57.83399955 z m 19.751,36.99499955 c 0,0.552 -0.447,1 -1,1 h -14.079 v 7.567 h 14.078 c 0.553,0 1,0.448 1,1 v 14.077 c 0,0.553 -0.447,1 -1,1 h -13.078 v 30.892 c 0,0.553 -0.447,1 -1,1 h -13.305 c -0.553,0 -1,-0.447 -1,-1 v -30.891 h -9.117 c -0.553,0 -1,-0.447 -1,-1 v -14.077 c 0,-0.552 0.447,-1 1,-1 h 9.117 v -5.708 c 0,-0.082 0.01,-0.161 0.028,-0.237 0.008,-8.131 1.747,-17.433 15.068,-17.475 0.029,-0.002 0.06,-0.004 0.09,-0.004 h 13.197 c 0.553,0 1,0.448 1,1 v 13.856 z"
     id="path1" /></svg>
