<?xml version="1.0" standalone="no"?>
<!DOCTYPE svg PUBLIC "-//W3C//DTD SVG 20010904//EN"
 "http://www.w3.org/TR/2001/REC-SVG-20010904/DTD/svg10.dtd">
<svg version="1.0" xmlns="http://www.w3.org/2000/svg"
 width="260.000000pt" height="260.000000pt" viewBox="0 0 260.000000 260.000000"
 preserveAspectRatio="xMidYMid meet">
<metadata>
Created by potrace 1.14, written by Peter Selinger 2001-2017
</metadata>
<g transform="translate(0.000000,260.000000) scale(0.100000,-0.100000)"
fill="#000000" stroke="none">
<path d="M1755 2199 c-243 -126 -913 -575 -1250 -839 -97 -77 -215 -185 -215
-199 0 -18 77 -66 243 -150 148 -75 371 -182 387 -186 3 -1 21 -8 40 -17 443
-200 1006 -413 1068 -406 19 2 28 11 33 32 8 29 4 298 -6 366 -2 19 -7 69 -10
110 -8 108 -22 256 -30 310 -2 14 -6 52 -10 85 -4 33 -8 74 -10 90 -3 17 -9
68 -15 115 -16 123 -19 139 -46 305 -26 163 -25 158 -48 260 -24 102 -24 102
-36 124 -14 26 -43 26 -95 0z"/>
</g>
</svg>
